<svg width="24" height="24" viewBox="0 0 24 24" fill="none" xmlns="http://www.w3.org/2000/svg">
<path d="M15.828 14.829C15.0779 15.5789 14.0607 16.0001 13 16.0001C11.9394 16.0001 10.9221 15.5789 10.172 14.829C9.80056 14.4576 9.5059 14.0166 9.30487 13.5313C9.10384 13.046 9.00037 12.5258 9.00037 12.0005C9.00037 11.4752 9.10384 10.955 9.30487 10.4697C9.5059 9.9844 9.80056 9.54344 10.172 9.172C10.9221 8.42212 11.9394 8.00085 13 8.00085C14.0607 8.00085 15.0779 8.42212 15.828 9.172" stroke="black" stroke-linecap="round" stroke-linejoin="round"/>
<path d="M8 12H13M4 2.99998C4 2.73476 4.10536 2.48041 4.29289 2.29287C4.48043 2.10533 4.73478 1.99998 5 1.99998C5.24762 1.99862 5.49048 2.068 5.7 2.19998L6.633 2.79998C6.84204 2.93355 7.08493 3.00453 7.333 3.00453C7.58107 3.00453 7.82396 2.93355 8.033 2.79998L8.967 2.19998C9.17604 2.0664 9.41893 1.99542 9.667 1.99542C9.91507 1.99542 10.158 2.0664 10.367 2.19998L11.3 2.79998C11.509 2.93355 11.7519 3.00453 12 3.00453C12.2481 3.00453 12.491 2.93355 12.7 2.79998L13.633 2.19998C13.842 2.0664 14.0849 1.99542 14.333 1.99542C14.5811 1.99542 14.824 2.0664 15.033 2.19998L15.967 2.79998C16.176 2.93355 16.4189 3.00453 16.667 3.00453C16.9151 3.00453 17.158 2.93355 17.367 2.79998L18.3 2.19998C18.5095 2.068 18.7524 1.99862 19 1.99998C19.2652 1.99998 19.5196 2.10533 19.7071 2.29287C19.8946 2.48041 20 2.73476 20 2.99998V21C20 21.2652 19.8946 21.5195 19.7071 21.7071C19.5196 21.8946 19.2652 22 19 22C18.7524 22.0013 18.5095 21.932 18.3 21.8L17.367 21.2C17.158 21.0664 16.9151 20.9954 16.667 20.9954C16.4189 20.9954 16.176 21.0664 15.967 21.2L15.033 21.8C14.824 21.9336 14.5811 22.0045 14.333 22.0045C14.0849 22.0045 13.842 21.9336 13.633 21.8L12.7 21.2C12.491 21.0664 12.2481 20.9954 12 20.9954C11.7519 20.9954 11.509 21.0664 11.3 21.2L10.367 21.8C10.158 21.9336 9.91507 22.0045 9.667 22.0045C9.41893 22.0045 9.17604 21.9336 8.967 21.8L8.033 21.2C7.82396 21.0664 7.58107 20.9954 7.333 20.9954C7.08493 20.9954 6.84204 21.0664 6.633 21.2L5.7 21.8C5.49048 21.932 5.24762 22.0013 5 22C4.73478 22 4.48043 21.8946 4.29289 21.7071C4.10536 21.5195 4 21.2652 4 21V2.99998Z" stroke="black" stroke-linecap="round" stroke-linejoin="round"/>
</svg>
