<svg width="24" height="24" viewBox="0 0 24 24" fill="none" xmlns="http://www.w3.org/2000/svg">
<path d="M15 5.76396C14.6897 5.76396 14.3836 5.69174 14.106 5.55302L9.894 3.44702C9.6164 3.30831 9.31033 3.23609 9 3.23609M15 5.76396C15.3103 5.76396 15.6164 5.69174 15.894 5.55302L19.553 3.72302C19.7056 3.64678 19.8751 3.61083 20.0455 3.61859C20.2159 3.62635 20.3814 3.67756 20.5265 3.76735C20.6715 3.85715 20.7911 3.98254 20.874 4.1316C20.9569 4.28067 21.0003 4.44846 21 4.61902V17.383C20.9999 17.5687 20.9481 17.7507 20.8505 17.9085C20.7528 18.0664 20.6131 18.194 20.447 18.277L15.894 20.554C15.6164 20.6927 15.3103 20.765 15 20.765M15 5.76396V20.765M15 20.765C14.6897 20.765 14.3836 20.6927 14.106 20.554L9.894 18.448C9.6164 18.3093 9.31033 18.2371 9 18.2371C8.68967 18.2371 8.3836 18.3093 8.106 18.448L4.447 20.278C4.29436 20.3543 4.12473 20.3902 3.95426 20.3824C3.78379 20.3746 3.61816 20.3233 3.47312 20.2334C3.32808 20.1435 3.20846 20.018 3.12565 19.8688C3.04284 19.7196 2.99958 19.5517 3 19.381V6.61802C3.0001 6.43236 3.05189 6.25039 3.14956 6.0925C3.24722 5.9346 3.38692 5.80701 3.553 5.72402L8.106 3.44702C8.3836 3.30831 8.68967 3.23609 9 3.23609M9 3.23609V18.236" stroke="black" stroke-linecap="round" stroke-linejoin="round"/>
</svg>
