<svg width="24" height="24" viewBox="0 0 24 24" fill="none" xmlns="http://www.w3.org/2000/svg">
<path d="M9.99998 2V17M6.99998 22C5.93911 22 4.9217 21.5786 4.17155 20.8284C3.4214 20.0783 2.99998 19.0609 2.99998 18C2.99998 17.7348 3.10533 17.4804 3.29287 17.2929C3.48041 17.1054 3.73476 17 3.99998 17H20C20.2652 17 20.5195 17.1054 20.7071 17.2929C20.8946 17.4804 21 17.7348 21 18C21 19.0609 20.5785 20.0783 19.8284 20.8284C19.0783 21.5786 18.0608 22 17 22H6.99998ZM9.15898 2.46C9.23799 2.33702 9.34299 2.23286 9.4666 2.15485C9.59021 2.07684 9.72942 2.02687 9.87443 2.00847C10.0194 1.99007 10.1667 2.00369 10.3059 2.04835C10.4451 2.09302 10.5728 2.16765 10.68 2.267L20.657 11.247C20.8102 11.3809 20.9189 11.5582 20.9686 11.7555C21.0183 11.9527 21.0067 12.1605 20.9354 12.3509C20.864 12.5414 20.7362 12.7056 20.569 12.8216C20.4019 12.9376 20.2034 12.9998 20 13H3.99998C3.81769 13.0001 3.63886 12.9503 3.48282 12.8561C3.32677 12.7618 3.19944 12.6268 3.11461 12.4654C3.02977 12.3041 2.99064 12.1226 3.00146 11.9407C3.01227 11.7587 3.07262 11.5832 3.17598 11.433L9.15898 2.46Z" stroke="black" stroke-linecap="round" stroke-linejoin="round"/>
</svg>
