<svg width="24" height="24" viewBox="0 0 24 24" fill="none" xmlns="http://www.w3.org/2000/svg">
<path d="M8.62002 13.8C8.40964 13.5806 8.24588 13.3209 8.13862 13.0366C8.03135 12.7522 7.98282 12.449 7.99593 12.1454C8.00905 11.8418 8.08354 11.5439 8.21492 11.2699C8.34631 10.9958 8.53185 10.7512 8.76036 10.5508C8.98887 10.3504 9.25561 10.1984 9.54448 10.1039C9.83335 10.0095 10.1384 9.97451 10.4411 10.0012C10.7439 10.0278 11.0381 10.1155 11.306 10.259C11.5739 10.4025 11.81 10.5987 12 10.836C12.1909 10.6012 12.4272 10.4074 12.6948 10.2661C12.9623 10.1248 13.2556 10.0388 13.5571 10.0135C13.8586 9.98814 14.1621 10.0239 14.4495 10.1185C14.7369 10.2132 15.0023 10.3648 15.2297 10.5644C15.4571 10.764 15.6419 11.0074 15.7731 11.28C15.9043 11.5527 15.9792 11.849 15.9932 12.1512C16.0073 12.4535 15.9602 12.7554 15.8548 13.0391C15.7495 13.3227 15.588 13.5822 15.38 13.802L12.754 16.658C12.6603 16.7658 12.5446 16.8523 12.4146 16.9116C12.2846 16.9709 12.1434 17.0016 12.0005 17.0016C11.8576 17.0016 11.7164 16.9709 11.5864 16.9116C11.4565 16.8523 11.3407 16.7658 11.247 16.658L8.62002 13.8Z" stroke="black" stroke-linecap="round" stroke-linejoin="round"/>
<path d="M3 9.99999C2.99993 9.70906 3.06333 9.42161 3.18579 9.15771C3.30824 8.8938 3.4868 8.65979 3.709 8.47199L10.709 2.47199C11.07 2.1669 11.5274 1.99951 12 1.99951C12.4726 1.99951 12.93 2.1669 13.291 2.47199L20.291 8.47199C20.5132 8.65979 20.6918 8.8938 20.8142 9.15771C20.9367 9.42161 21.0001 9.70906 21 9.99999V19C21 19.5304 20.7893 20.0391 20.4142 20.4142C20.0391 20.7893 19.5304 21 19 21H5C4.46957 21 3.96086 20.7893 3.58579 20.4142C3.21071 20.0391 3 19.5304 3 19V9.99999Z" stroke="black" stroke-linecap="round" stroke-linejoin="round"/>
</svg>
