<svg width="338" height="53" viewBox="0 0 338 53" fill="none" xmlns="http://www.w3.org/2000/svg">
<g clip-path="url(#clip0_101_149)">
<path d="M4.32 34.84V3.02C4.32 0.99 3.59 0.57 0 0.36V0H25.64L27.36 8.58H26.94C24.39 2.34 22.41 0.83 16.59 0.83H8.32V18.25H15.44C20.12 18.25 21.21 16.48 22.04 11.91H22.4V25.64H22.04C21.21 20.8 20.12 19.09 15.44 19.09H8.32V34.9C8.32 36.36 9.1 37.03 10.66 37.03H17.89C23.09 37.03 25.48 35.47 28.97 28.76H29.33L26.57 37.86H0V37.5C3.59 37.29 4.32 36.88 4.32 34.85V34.84Z" fill="#2E2E2E"/>
<path d="M32.6599 30.06V16.8C32.6599 14.36 31.7199 13.47 29.4399 13.26V12.9C31.3599 12.9 34.1699 12.69 36.2999 12.38H36.6099C36.2999 14.41 36.2999 16.85 36.2999 19.35V29.39C36.2999 33.91 38.4799 35.94 41.8599 35.94C44.1999 35.94 46.2299 34.54 48.3599 32.66V16.8C48.3599 14.36 47.4199 13.47 44.5099 13.26V12.9C47.0599 12.9 49.8699 12.69 51.9999 12.38H52.3099C51.9999 14.41 51.9999 16.85 51.9999 19.35V33.08C51.9999 35.94 52.4699 36.41 55.2199 36.41V36.83C52.8299 36.99 50.4399 37.56 48.3599 38.39H48.0499L48.4699 33.19C45.9199 35.84 43.2199 38.18 39.3699 38.18C35.2099 38.18 32.6599 35.47 32.6599 30.07V30.06Z" fill="#2E2E2E"/>
<path d="M59.24 35V19.35C59.24 16.23 58.3 15.35 56.17 14.98V14.67C58.41 14.36 61.01 13.37 62.88 12.38H63.14L62.72 18.46C63.45 17.32 64.23 16.33 65.16 15.34C66.88 13.42 68.7 12.38 70.57 12.38C71.97 12.38 72.81 13.21 72.81 14.46C72.81 15.71 71.87 16.54 70.68 16.54C69.28 16.54 68.6 15.45 67.46 15.45C65.95 15.45 64.34 16.96 62.83 19.35V35C62.83 37.08 63.61 37.29 67.35 37.5V37.86H55.75V37.5C58.51 37.29 59.23 37.08 59.23 35H59.24Z" fill="#2E2E2E"/>
<path d="M71.1 25.69C71.1 17.68 76.66 12.38 83.84 12.38C91.02 12.38 96.22 17.48 96.22 25.07C96.22 33.08 90.6 38.38 83.43 38.38C76.26 38.38 71.11 33.28 71.11 25.69H71.1ZM84.15 37.6C88.78 37.6 92.31 33.44 92.31 26.47C92.31 19.5 88.67 13.16 83.16 13.16C78.53 13.16 75 17.32 75 24.29C75 31.26 78.59 37.6 84.15 37.6Z" fill="#2E2E2E"/>
<path d="M99.49 49.04V19.35C99.49 16.23 98.55 15.35 96.47 14.98V14.67C98.66 14.36 101.25 13.37 103.13 12.38H103.44L103.02 16.44C105.15 14.36 108.12 12.59 111.55 12.59C117.43 12.59 122.11 17.38 122.11 24.76C122.11 33.03 116.44 38.18 109.47 38.18C107.18 38.18 105.05 37.71 103.13 36.72V49.05C103.13 51.13 103.91 51.34 107.6 51.55V51.91H96.05V51.55C98.75 51.34 99.48 51.13 99.48 49.05L99.49 49.04ZM109.79 37.39C114.47 37.39 118.32 33.33 118.32 26.37C118.32 19.41 114.89 14.72 109.38 14.72C107.46 14.72 105.32 15.4 103.14 17.06V31.62C103.14 34.64 105.74 37.39 109.8 37.39H109.79Z" fill="#2E2E2E"/>
<path d="M124.25 25.58C124.25 17.94 129.29 12.37 136.16 12.37C142.04 12.37 145.68 15.85 145.78 21.78H127.89C127.84 22.35 127.79 22.98 127.79 23.6C127.79 31.14 132.11 35.82 137.46 35.82C141.1 35.82 144.32 33.58 146.51 29.58L146.87 29.79C144.63 35.51 140.16 38.37 135.69 38.37C129.35 38.37 124.25 33.59 124.25 25.58ZM140.58 20.96C141.62 20.96 141.88 20.65 141.88 19.56C141.88 16.54 139.96 13.16 135.8 13.16C131.95 13.16 128.78 15.92 128 20.96H140.58Z" fill="#2E2E2E"/>
<path d="M161.07 33.91C158.37 36.82 155.97 38.28 153.32 38.28C150.2 38.28 147.96 36.2 147.96 33.18C147.96 30.79 149.31 29.07 154.93 27.41L161.07 25.59V20.13C161.07 16.91 159.67 14.83 156.75 14.83C154.62 14.83 151.24 16.49 151.24 17.59C151.24 18.11 151.86 19.2 151.86 20.09C151.86 21.18 151.13 21.75 150.14 21.75C149.31 21.75 148.53 21.28 148.53 20.35C148.53 19.21 149.57 17.59 151.23 16.14C153.52 14.06 156.22 12.6 158.72 12.6C162.26 12.6 164.65 14.78 164.65 19.31V33.71C164.65 35.22 165.22 36.26 166.47 36.26C167.61 36.26 168.5 35.32 169.28 34.18L169.59 34.39C168.71 36.16 167.04 38.29 164.34 38.29C161.64 38.29 161.12 36.05 161.06 33.92L161.07 33.91ZM155.4 36.04C157.27 36.04 159.09 34.95 161.07 33.08V26.32L156.03 27.93C152.91 28.87 151.56 30.06 151.56 32.19C151.56 34.58 153.12 36.04 155.41 36.04H155.4Z" fill="#2E2E2E"/>
<path d="M188.32 35V21.38C188.32 16.86 186.14 14.83 182.7 14.83C180.36 14.83 178.33 16.08 176.2 17.69V35.01C176.2 37.09 176.93 37.3 179.48 37.51V37.87H169.13V37.51C171.89 37.3 172.61 37.09 172.61 35.01V19.36C172.61 16.24 171.67 15.36 169.54 14.99V14.68C171.78 14.37 174.38 13.38 176.25 12.39H176.51L176.09 17.17C178.64 14.78 181.34 12.59 185.19 12.59C189.35 12.59 191.9 15.3 191.9 20.7V35C191.9 37.08 192.63 37.29 195.38 37.5V37.86H185.03V37.5C187.58 37.29 188.31 37.08 188.31 35H188.32Z" fill="#2E2E2E"/>
<path d="M202.83 34.84L211.93 3.01C212.5 0.98 211.93 0.57 208.45 0.36L208.5 0H221.14L221.04 0.36C217.4 0.57 216.57 0.98 216 3.01L206.85 34.89C206.43 36.45 207.01 37.02 208.57 37.02H213.77C218.97 37.02 221.93 35.36 227.39 28.65H227.75L222.34 37.85H197.69L197.74 37.49C201.38 37.28 202.26 36.81 202.84 34.84H202.83Z" fill="#2E2E2E"/>
<path d="M227.75 36.4C227.75 35.46 228.32 33.38 228.74 31.98L232.69 18.25C233.11 16.85 233.31 15.75 232.74 15.75C232.17 15.75 230.92 17 227.8 20.79L227.49 20.53C231.44 14.65 233.52 12.37 235.5 12.37C236.54 12.37 237.01 13.2 237.01 14.35C237.01 15.29 236.44 17.37 236.02 18.77L232.07 32.5C231.65 33.9 231.5 35 232.02 35C232.64 35 233.84 33.75 236.96 29.96L237.27 30.22C233.32 36.1 231.29 38.38 229.31 38.38C228.22 38.38 227.75 37.55 227.75 36.4ZM237.42 0.420044C238.77 0.420044 239.66 1.41004 239.66 2.76004C239.66 4.22004 238.57 5.41004 237.11 5.41004C235.76 5.41004 234.87 4.37004 234.87 3.07004C234.87 1.61004 235.96 0.420044 237.42 0.420044Z" fill="#2E2E2E"/>
<path d="M237.37 33.7C237.37 32.61 238.1 31.93 238.98 31.93C239.6 31.93 240.18 32.35 240.44 33.18C241.01 35.26 241.69 37.55 243.98 37.55C246.27 37.55 247.46 35.94 247.46 33.49C247.46 32.14 246.94 30.58 246.11 28.76L243.87 23.98C242.93 22.16 242.47 20.34 242.47 18.62C242.47 15.4 244.91 12.38 248.81 12.38C252.5 12.38 254.37 14.82 254.37 17.01C254.37 18.05 253.69 18.78 252.81 18.78C252.19 18.78 251.67 18.36 251.41 17.58C250.89 15.55 250.42 13.21 248.39 13.21C246.36 13.21 245.37 14.77 245.37 17.21C245.37 18.51 245.94 20.12 246.72 21.73L249.01 26.52C249.95 28.55 250.31 30.26 250.31 32.08C250.31 35.3 247.81 38.37 243.45 38.37C239.5 38.37 237.37 35.98 237.37 33.69V33.7Z" fill="#2E2E2E"/>
<path d="M255.41 36.1901C255.41 35.3601 255.77 33.9001 256.09 32.7601L261.45 14.4001H257.29L257.76 12.8901H261.87L263.27 8.11006C263.74 6.45006 265.97 5.56006 266.91 5.56006C267.17 5.56006 267.27 5.66006 267.27 5.92006C267.27 6.34006 266.8 7.84006 265.81 11.2801L265.34 12.8901H272.15L271.37 14.4001H264.92L259.67 32.3901C259.25 33.9001 259.1 34.9901 260.03 34.9901C261.07 34.9901 263.46 32.9101 266.74 29.9501L267.05 30.2101C262.89 35.4601 259.72 38.3701 257.38 38.3701C256.03 38.3701 255.4 37.5401 255.4 36.1901H255.41Z" fill="#2E2E2E"/>
<path d="M270.03 36.4C270.03 35.46 270.6 33.38 271.02 31.98L274.97 18.25C275.39 16.85 275.59 15.75 275.02 15.75C274.45 15.75 273.2 17 270.08 20.79L269.77 20.53C273.72 14.65 275.8 12.37 277.78 12.37C278.82 12.37 279.29 13.2 279.29 14.35C279.29 15.29 278.72 17.37 278.3 18.77L274.35 32.5C273.93 33.9 273.78 35 274.3 35C274.92 35 276.12 33.75 279.24 29.96L279.55 30.22C275.6 36.1 273.57 38.38 271.59 38.38C270.5 38.38 270.03 37.55 270.03 36.4ZM279.7 0.420044C281.05 0.420044 281.94 1.41004 281.94 2.76004C281.94 4.22004 280.85 5.41004 279.39 5.41004C278.04 5.41004 277.15 4.37004 277.15 3.07004C277.15 1.61004 278.24 0.420044 279.7 0.420044Z" fill="#2E2E2E"/>
<path d="M281.62 37.18C281.62 36.71 281.72 36.19 282.09 35.05L286.93 18.25C287.29 16.85 287.5 15.75 286.98 15.75C286.36 15.75 285.16 17 282.04 20.79L281.73 20.53C285.68 14.65 287.71 12.37 289.69 12.37C290.73 12.37 291.2 13.2 291.2 14.35C291.2 15.39 290.68 17.37 290.21 18.77L287.3 28.49H287.46C291.2 20.59 296.82 12.37 301.03 12.37C302.28 12.37 303.01 13.15 303.01 14.45C303.01 15.54 302.54 17.31 302.13 18.77L298.18 32.5C297.76 33.9 297.61 35 298.13 35C298.7 35 299.95 33.75 303.07 29.96L303.38 30.22C299.43 36.1 297.4 38.38 295.42 38.38C294.33 38.38 293.86 37.55 293.86 36.4C293.86 35.46 294.43 33.38 294.85 31.98L298.75 18.56C299.22 16.95 299.37 15.75 298.44 15.75C295.79 15.75 288.14 26.67 285.18 36.08C284.71 37.54 283.88 38.37 282.89 38.37C282.11 38.37 281.64 37.95 281.64 37.17L281.62 37.18Z" fill="#2E2E2E"/>
<path d="M296.29 44.46C296.29 41.08 300.19 38.58 308.93 38.38C306.38 36.77 305.65 35.47 305.65 34.38C305.65 32.98 306.95 31.94 309.71 31H309.76C306.38 30.79 304.35 28.4 304.35 24.86C304.35 19.97 308.41 12.38 314.28 12.38C316.93 12.38 318.28 13.26 320.73 13.26C322.76 13.26 323.07 12.38 324.16 12.38C325.04 12.38 325.67 12.95 325.67 13.78C325.67 14.72 324.79 15.5 323.49 15.5C322.35 15.5 320.32 15.08 317.98 13.89C319.12 14.93 319.96 16.59 319.96 18.73C319.96 22.89 317 28.56 312.47 30.43C310.13 31.47 308.67 32.2 308.67 33.03C308.67 33.76 309.35 34.69 311.32 35.94L315.22 38.49C319.02 40.93 320.32 43.01 320.32 45.2C320.32 49.26 315.95 52.43 309.24 52.43C301.18 52.43 296.29 48.48 296.29 44.47V44.46ZM309.92 51.43C314.81 51.43 317.46 49.45 317.46 46.8C317.46 44.77 316.32 43.16 312.83 40.92L309.92 39C302.95 39.26 299.52 41.55 299.52 44.67C299.52 48.05 303.32 51.43 309.92 51.43ZM309.71 30.21C313.66 30.21 317.09 21.32 317.09 17.21C317.09 14.71 316.15 13.15 314.59 13.15C310.43 13.15 307.21 22.2 307.21 26.25C307.21 28.69 308.15 30.2 309.71 30.2V30.21Z" fill="#2E2E2E"/>
<path d="M320.27 33.7C320.27 32.61 321 31.93 321.88 31.93C322.5 31.93 323.08 32.35 323.34 33.18C323.91 35.26 324.59 37.55 326.88 37.55C329.17 37.55 330.36 35.94 330.36 33.49C330.36 32.14 329.84 30.58 329.01 28.76L326.77 23.98C325.83 22.16 325.37 20.34 325.37 18.62C325.37 15.4 327.81 12.38 331.71 12.38C335.4 12.38 337.27 14.82 337.27 17.01C337.27 18.05 336.59 18.78 335.71 18.78C335.09 18.78 334.57 18.36 334.31 17.58C333.79 15.55 333.32 13.21 331.29 13.21C329.26 13.21 328.27 14.77 328.27 17.21C328.27 18.51 328.84 20.12 329.62 21.73L331.91 26.52C332.85 28.55 333.21 30.26 333.21 32.08C333.21 35.3 330.71 38.37 326.34 38.37C322.39 38.37 320.26 35.98 320.26 33.69L320.27 33.7Z" fill="#2E2E2E"/>
</g>
<defs>
<clipPath id="clip0_101_149">
<rect width="337.27" height="52.42" fill="white"/>
</clipPath>
</defs>
</svg>
